<svg width="29" height="28" viewBox="0 0 29 28" fill="none" xmlns="http://www.w3.org/2000/svg">
<g filter="url(#filter0_d_15_893)">
<path d="M24.7668 19.375C23.0461 16.4003 20.288 14.3692 17.0924 13.6369C18.6109 13.0148 19.8662 11.8847 20.644 10.4397C21.4217 8.99472 21.6736 7.32451 21.3565 5.71443C21.0395 4.10436 20.1732 2.65432 18.9057 1.61206C17.6382 0.569804 16.0481 0 14.4071 0C12.7661 0 11.1761 0.569804 9.90856 1.61206C8.64106 2.65432 7.77479 4.10436 7.45775 5.71443C7.14072 7.32451 7.39258 8.99472 8.17033 10.4397C8.94807 11.8847 10.2034 13.0148 11.7219 13.6369C8.53048 14.366 5.76817 16.4003 4.04746 19.375C3.99765 19.4703 3.98656 19.581 4.0165 19.6842C4.04644 19.7875 4.1151 19.8751 4.20813 19.9289C4.30117 19.9827 4.41139 19.9984 4.51576 19.9728C4.62013 19.9473 4.71059 19.8824 4.76824 19.7917C6.80352 16.2701 10.4095 14.1671 14.4071 14.1671C18.4048 14.1671 22.0108 16.2701 24.046 19.7917C24.0826 19.855 24.1351 19.9075 24.1983 19.9441C24.2616 19.9806 24.3334 19.9999 24.4064 20C24.4796 20.0002 24.5516 19.9808 24.6147 19.9438C24.7102 19.8884 24.7799 19.7975 24.8084 19.6909C24.8369 19.5842 24.822 19.4706 24.7668 19.375ZM8.15759 7.08425C8.15759 5.84821 8.52412 4.63992 9.21082 3.61219C9.89753 2.58445 10.8736 1.78343 12.0155 1.31042C13.1575 0.837405 14.4141 0.713643 15.6264 0.954784C16.8387 1.19592 17.9522 1.79114 18.8262 2.66515C19.7003 3.53917 20.2955 4.65273 20.5366 5.86503C20.7778 7.07732 20.654 8.3339 20.181 9.47585C19.708 10.6178 18.9069 11.5939 17.8792 12.2806C16.8515 12.9673 15.6432 13.3338 14.4071 13.3338C12.7502 13.3319 11.1618 12.6728 9.99017 11.5012C8.81857 10.3296 8.15951 8.74115 8.15759 7.08425Z" fill="white"/>
</g>
<defs>
<filter id="filter0_d_15_893" x="0" y="0" width="28.8228" height="28" filterUnits="userSpaceOnUse" color-interpolation-filters="sRGB">
<feFlood flood-opacity="0" result="BackgroundImageFix"/>
<feColorMatrix in="SourceAlpha" type="matrix" values="0 0 0 0 0 0 0 0 0 0 0 0 0 0 0 0 0 0 127 0" result="hardAlpha"/>
<feOffset dy="4"/>
<feGaussianBlur stdDeviation="2"/>
<feComposite in2="hardAlpha" operator="out"/>
<feColorMatrix type="matrix" values="0 0 0 0 0 0 0 0 0 0 0 0 0 0 0 0 0 0 0.25 0"/>
<feBlend mode="normal" in2="BackgroundImageFix" result="effect1_dropShadow_15_893"/>
<feBlend mode="normal" in="SourceGraphic" in2="effect1_dropShadow_15_893" result="shape"/>
</filter>
</defs>
</svg>
