<svg width="14" height="15" viewBox="0 0 14 15" fill="none" xmlns="http://www.w3.org/2000/svg">
<path id="Vector" d="M7 0.5C3.13401 0.5 0 3.63401 0 7.5C0 11.366 3.13401 14.5 7 14.5C10.866 14.5 14 11.366 14 7.5C14 3.63401 10.866 0.5 7 0.5ZM9.35505 2.68661C9.56026 2.68824 9.75949 2.76393 9.91001 2.91445L11.0749 4.0789C11.3969 4.40091 11.3748 4.94345 11.0266 5.29255C10.6775 5.64167 10.1341 5.66243 9.81294 5.34132L8.64848 4.17687C8.32646 3.85574 8.34898 3.31147 8.69724 2.96322C8.88227 2.77773 9.12249 2.68478 9.35505 2.68661ZM7.43573 4.22518L9.76507 6.55408L5.97961 10.3386L3.65027 8.00931L7.43573 4.22518ZM3.04565 8.45036L5.50265 10.9074L2.43041 11.5226L3.04565 8.45036Z" fill="#C69585"/>
</svg>
