<svg width="8" height="30" viewBox="0 0 8 30" fill="none" xmlns="http://www.w3.org/2000/svg">
<path d="M3.09527e-05 26.5962V25.7755C0.0190483 25.7092 0.0507439 25.6488 0.0634221 25.5824C0.342343 23.8564 1.85105 22.4925 3.61964 22.3778C5.59744 22.245 7.27097 23.3193 7.81613 25.0694C7.88586 25.2987 7.93658 25.5401 7.99997 25.7755V26.5963C7.98095 26.6506 7.94925 26.6988 7.94292 26.7592C7.67033 28.3524 6.4659 29.5655 4.81773 29.9095C4.69095 29.9336 4.56417 29.9698 4.43738 30H3.57526C3.51821 29.9819 3.46116 29.9517 3.40411 29.9457C1.75594 29.6922 0.500822 28.5757 0.120443 27.0247C0.0824082 26.8739 0.0380657 26.7351 3.09527e-05 26.5962ZM8 3.39769L7.99997 4.21851C7.98095 4.2849 7.94925 4.34525 7.94292 4.41164C7.65766 6.14972 6.14261 7.5076 4.35497 7.61623C2.38351 7.73694 0.71632 6.65063 0.177495 4.89444C0.107764 4.67111 0.0570521 4.44181 0 4.21848V3.39772C0.0190174 3.34341 0.050713 3.29513 0.0633912 3.24081C0.367669 1.6717 1.32488 0.645748 2.92233 0.156911C3.13152 0.0905254 3.35339 0.0543152 3.56892 0H4.43104C4.4881 0.0181051 4.54515 0.0482803 4.6022 0.0543153C6.25671 0.313821 7.50552 1.42427 7.88586 2.97527C7.92393 3.12011 7.96197 3.25891 8 3.39769ZM7.99997 14.5867V15.4074C7.98095 15.4738 7.94925 15.5342 7.93658 15.6005C7.65132 17.3326 6.07922 18.7267 4.30426 18.7991C2.30744 18.8836 0.614894 17.7369 0.13946 15.9687C0.0887475 15.7816 0.0443738 15.5945 0 15.4074V14.5867C0.0190174 14.5203 0.050713 14.4599 0.0633912 14.3935C0.342312 12.6615 1.92075 11.2674 3.69571 11.1889C5.69253 11.0984 7.38507 12.2511 7.86051 14.0194C7.91122 14.2125 7.95559 14.3996 7.99997 14.5867Z" fill="#58362A"/>
</svg>
