<svg width="23" height="22" viewBox="0 0 23 22" fill="none" xmlns="http://www.w3.org/2000/svg">
<path d="M19.0466 3.23651C17.2504 1.42584 14.8796 0.29954 12.3431 0.0517894C9.80653 -0.195961 7.26316 0.450363 5.15144 1.87933C3.03972 3.3083 1.49199 5.43037 0.775074 7.87969C0.058158 10.329 0.216986 12.9521 1.22418 15.2967C1.32915 15.5146 1.3636 15.7599 1.3227 15.9984L0.35933 20.6361C0.322214 20.8139 0.329793 20.9981 0.381386 21.1723C0.432979 21.3464 0.52697 21.505 0.65491 21.6338C0.759791 21.738 0.884669 21.82 1.02202 21.8746C1.15936 21.9293 1.30633 21.9555 1.45407 21.9517H1.67302L6.35852 21.0088C6.59666 20.9802 6.83815 21.0142 7.05916 21.1075C9.40027 22.1162 12.0194 22.2753 14.4651 21.5573C16.9107 20.8393 19.0296 19.2892 20.4565 17.1744C21.8833 15.0595 22.5287 12.5123 22.2813 9.97198C22.0339 7.43165 20.9093 5.05736 19.1013 3.25844L19.0466 3.23651ZM6.92779 12.0843C6.71127 12.0843 6.49961 12.02 6.31958 11.8995C6.13955 11.779 5.99924 11.6078 5.91638 11.4075C5.83352 11.2071 5.81184 10.9867 5.85408 10.774C5.89632 10.5613 6.00059 10.366 6.15369 10.2127C6.30679 10.0593 6.50186 9.9549 6.71421 9.9126C6.92657 9.8703 7.14669 9.89201 7.34673 9.97499C7.54677 10.058 7.71774 10.1985 7.83803 10.3788C7.95833 10.5591 8.02253 10.7711 8.02253 10.9879C8.02253 11.2787 7.90719 11.5576 7.70189 11.7632C7.49658 11.9688 7.21813 12.0843 6.92779 12.0843ZM11.3068 12.0843C11.0902 12.0843 10.8786 12.02 10.6986 11.8995C10.5185 11.779 10.3782 11.6078 10.2953 11.4075C10.2125 11.2071 10.1908 10.9867 10.2331 10.774C10.2753 10.5613 10.3796 10.366 10.5327 10.2127C10.6858 10.0593 10.8808 9.9549 11.0932 9.9126C11.3055 9.8703 11.5257 9.89201 11.7257 9.97499C11.9257 10.058 12.0967 10.1985 12.217 10.3788C12.3373 10.5591 12.4015 10.7711 12.4015 10.9879C12.4015 11.2787 12.2862 11.5576 12.0809 11.7632C11.8756 11.9688 11.5971 12.0843 11.3068 12.0843ZM15.6857 12.0843C15.4692 12.0843 15.2576 12.02 15.0775 11.8995C14.8975 11.779 14.7572 11.6078 14.6743 11.4075C14.5915 11.2071 14.5698 10.9867 14.612 10.774C14.6543 10.5613 14.7585 10.366 14.9116 10.2127C15.0647 10.0593 15.2598 9.9549 15.4722 9.9126C15.6845 9.8703 15.9046 9.89201 16.1047 9.97499C16.3047 10.058 16.4757 10.1985 16.596 10.3788C16.7163 10.5591 16.7805 10.7711 16.7805 10.9879C16.7805 11.2787 16.6651 11.5576 16.4598 11.7632C16.2545 11.9688 15.9761 12.0843 15.6857 12.0843Z" fill="white"/>
</svg>
