<svg width="23" height="22" viewBox="0 0 23 22" fill="none" xmlns="http://www.w3.org/2000/svg">
<path d="M6.5332 1.25714C6.5332 0.923728 6.73188 0.603968 7.08552 0.368209C7.43916 0.132449 7.91879 0 8.41892 0H14.7046C15.2048 0 15.6844 0.132449 16.038 0.368209C16.3917 0.603968 16.5903 0.923728 16.5903 1.25714V2.09524C16.5903 2.42865 16.3917 2.74841 16.038 2.98417C15.6844 3.21993 15.2048 3.35238 14.7046 3.35238H8.41892C7.91879 3.35238 7.43916 3.21993 7.08552 2.98417C6.73188 2.74841 6.5332 2.42865 6.5332 2.09524V1.25714Z" fill="white"/>
<path fill-rule="evenodd" clip-rule="evenodd" d="M4.94477 1.46667C3.40721 1.5467 2.43677 1.77534 1.74133 2.42698C0.666992 3.43187 0.666992 5.04838 0.666992 8.28139V15.1407C0.666992 18.3749 0.666992 19.9914 1.74133 20.9963C2.81444 22 4.54388 22 8.00032 22H15.3337C18.7901 22 20.5195 22 21.5927 20.9963C22.667 19.9902 22.667 18.3749 22.667 15.1407V8.28139C22.667 5.04838 22.667 3.43187 21.5927 2.42698C20.8972 1.77534 19.9268 1.5467 18.3892 1.46667V1.99598C18.3892 2.90558 18.0029 3.77793 17.3153 4.42111C16.6276 5.0643 15.695 5.42564 14.7225 5.42564H8.61143C7.63897 5.42564 6.70634 5.0643 6.01871 4.42111C5.33108 3.77793 4.94477 2.90558 4.94477 1.99598V1.46667ZM4.63921 8.85529C4.63921 8.62789 4.73579 8.4098 4.9077 8.24901C5.07961 8.08821 5.31276 7.99788 5.55588 7.99788H17.7781C18.0212 7.99788 18.2544 8.08821 18.4263 8.24901C18.5982 8.4098 18.6948 8.62789 18.6948 8.85529C18.6948 9.08269 18.5982 9.30077 18.4263 9.46157C18.2544 9.62237 18.0212 9.7127 17.7781 9.7127H5.55588C5.31276 9.7127 5.07961 9.62237 4.9077 9.46157C4.73579 9.30077 4.63921 9.08269 4.63921 8.85529ZM5.86143 12.8565C5.86143 12.6291 5.95801 12.4111 6.12992 12.2503C6.30183 12.0895 6.53499 11.9991 6.7781 11.9991H16.5559C16.799 11.9991 17.0322 12.0895 17.2041 12.2503C17.376 12.4111 17.4725 12.6291 17.4725 12.8565C17.4725 13.0839 17.376 13.302 17.2041 13.4628C17.0322 13.6236 16.799 13.714 16.5559 13.714H6.7781C6.53499 13.714 6.30183 13.6236 6.12992 13.4628C5.95801 13.302 5.86143 13.0839 5.86143 12.8565ZM7.08366 16.8578C7.08366 16.6304 7.18023 16.4123 7.35214 16.2515C7.52405 16.0907 7.75721 16.0004 8.00032 16.0004H15.3337C15.5768 16.0004 15.8099 16.0907 15.9818 16.2515C16.1537 16.4123 16.2503 16.6304 16.2503 16.8578C16.2503 17.0852 16.1537 17.3033 15.9818 17.4641C15.8099 17.6249 15.5768 17.7152 15.3337 17.7152H8.00032C7.75721 17.7152 7.52405 17.6249 7.35214 17.4641C7.18023 17.3033 7.08366 17.0852 7.08366 16.8578Z" fill="white"/>
</svg>
