<svg width="37" height="29" viewBox="0 0 37 29" fill="none" xmlns="http://www.w3.org/2000/svg">
<g filter="url(#filter0_d_15_904)">
<path d="M18.5 18.9615C24.0985 18.9615 28.9411 15.5462 31.4324 10.5C28.9411 5.45385 24.0985 2.03846 18.5 2.03846C12.9015 2.03846 8.05888 5.45385 5.56757 10.5C8.05888 15.5462 12.9015 18.9615 18.5 18.9615ZM18.5 0.5C24.8822 0.5 30.3967 4.57692 33 10.5C30.3967 16.4231 24.8822 20.5 18.5 20.5C12.1178 20.5 6.60328 16.4231 4 10.5C6.60328 4.57692 12.1178 0.5 18.5 0.5ZM18.5 3.57692C21.999 3.57692 24.7983 6.65385 24.7983 10.5C24.7983 14.3462 21.999 17.4231 18.5 17.4231C15.001 17.4231 12.2017 14.3462 12.2017 10.5C12.2017 6.65385 15.001 3.57692 18.5 3.57692ZM18.5 5.11538C17.2008 5.11538 15.9548 5.68269 15.0361 6.6925C14.1175 7.70231 13.6014 9.07191 13.6014 10.5C13.6014 11.9281 14.1175 13.2977 15.0361 14.3075C15.9548 15.3173 17.2008 15.8846 18.5 15.8846C19.7992 15.8846 21.0452 15.3173 21.9639 14.3075C22.8825 13.2977 23.3986 11.9281 23.3986 10.5C23.3986 9.07191 22.8825 7.70231 21.9639 6.6925C21.0452 5.68269 19.7992 5.11538 18.5 5.11538Z" fill="#F2F2F2"/>
</g>
<defs>
<filter id="filter0_d_15_904" x="0" y="0.5" width="37" height="28" filterUnits="userSpaceOnUse" color-interpolation-filters="sRGB">
<feFlood flood-opacity="0" result="BackgroundImageFix"/>
<feColorMatrix in="SourceAlpha" type="matrix" values="0 0 0 0 0 0 0 0 0 0 0 0 0 0 0 0 0 0 127 0" result="hardAlpha"/>
<feOffset dy="4"/>
<feGaussianBlur stdDeviation="2"/>
<feComposite in2="hardAlpha" operator="out"/>
<feColorMatrix type="matrix" values="0 0 0 0 0 0 0 0 0 0 0 0 0 0 0 0 0 0 0.25 0"/>
<feBlend mode="normal" in2="BackgroundImageFix" result="effect1_dropShadow_15_904"/>
<feBlend mode="normal" in="SourceGraphic" in2="effect1_dropShadow_15_904" result="shape"/>
</filter>
</defs>
</svg>
