<svg width="18" height="19" viewBox="0 0 18 19" fill="none" xmlns="http://www.w3.org/2000/svg">
<path d="M8.98542 0.710982L17.5289 9.8555C17.5603 9.88913 17.5917 9.92051 17.6242 9.95189V16.8985C17.6242 18.0586 16.7446 19 15.6608 19H12.1268C11.9185 19 11.7187 18.9115 11.5715 18.7538C11.4242 18.5962 11.3414 18.3824 11.3414 18.1594V13.1159C11.3414 12.8929 11.2587 12.6791 11.1114 12.5215C10.9641 12.3639 10.7644 12.2753 10.5561 12.2753H7.41474C7.20646 12.2753 7.0067 12.3639 6.85942 12.5215C6.71214 12.6791 6.6294 12.8929 6.6294 13.1159V18.1594C6.6294 18.3824 6.54666 18.5962 6.39938 18.7538C6.2521 18.9115 6.05235 19 5.84406 19H2.31003C1.78932 19 1.28993 18.7786 0.921732 18.3845C0.553532 17.9904 0.34668 17.4559 0.34668 16.8985V9.95189C0.379257 9.9207 0.411032 9.88856 0.441968 9.8555L8.98542 0.70874V0.710982Z" fill="#F8F8F8"/>
</svg>
