<svg width="20" height="20" viewBox="0 0 20 20" fill="none" xmlns="http://www.w3.org/2000/svg">
<path fill-rule="evenodd" clip-rule="evenodd" d="M9.99997 0C10.1473 0 10.2886 0.0585317 10.3928 0.162719C10.497 0.266905 10.5555 0.408213 10.5555 0.555556V0.593333C12.11 0.755556 13.2961 1.42389 14.0683 2.27444C14.5994 2.85944 14.9511 3.55667 15.0616 4.23667L15.1216 4.28278C15.7461 4.76667 16.2044 5.35333 16.0955 6.02611C15.9905 6.67611 15.4033 7.07167 14.8566 7.31333C14.7184 7.37428 14.5775 7.42914 14.4344 7.47778C14.4752 8.08516 14.3908 8.69446 14.1865 9.26788C13.9821 9.8413 13.6621 10.3666 13.2463 10.8113C12.8305 11.2559 12.3279 11.6104 11.7694 11.8528C11.211 12.0951 10.6087 12.2202 9.99997 12.2202C9.39122 12.2202 8.78896 12.0951 8.23053 11.8528C7.6721 11.6104 7.16941 11.2559 6.75364 10.8113C6.33786 10.3666 6.01787 9.8413 5.81349 9.26788C5.60911 8.69446 5.52472 8.08516 5.56553 7.47778C5.42246 7.42914 5.28158 7.37428 5.14331 7.31333C4.59664 7.07167 4.00942 6.67611 3.90442 6.02611C3.79553 5.35333 4.25386 4.76667 4.87831 4.28278L4.94886 4.22833C4.9632 4.13989 4.98099 4.05205 5.0022 3.965C5.14836 3.38714 5.41555 2.84689 5.78609 2.38C6.53053 1.43111 7.74886 0.664444 9.44442 0.566667V0.555556C9.44442 0.408213 9.50295 0.266905 9.60714 0.162719C9.71132 0.0585317 9.85263 0 9.99997 0ZM14.2555 5.8C14.3692 5.84116 14.4932 5.84411 14.6087 5.80842C14.7242 5.77273 14.8249 5.70033 14.8955 5.60222C15.005 5.755 15.0011 5.83611 14.9989 5.84889C14.9916 5.89333 14.9066 6.07667 14.4072 6.29778C13.8244 6.55556 12.9478 6.74222 11.9422 6.84778C11.9183 6.34874 11.7033 5.87804 11.3416 5.53331C10.98 5.18858 10.4996 4.99627 9.99997 4.99627C9.50036 4.99627 9.01992 5.18858 8.6583 5.53331C8.29668 5.87804 8.08163 6.34874 8.05775 6.84778C7.0522 6.74222 6.17553 6.55556 5.59275 6.29778C5.09331 6.07667 5.00831 5.89333 5.00108 5.84889C4.99886 5.83611 4.99497 5.75556 5.10442 5.60222C5.18285 5.71155 5.29828 5.78869 5.42929 5.81934C5.5603 5.84998 5.69798 5.83205 5.81676 5.76885C5.93554 5.70566 6.02735 5.60151 6.07515 5.47574C6.12295 5.34997 6.12348 5.21113 6.07664 5.085C6.00997 4.905 5.98942 4.60667 6.08164 4.22778C6.19055 3.80408 6.38783 3.40819 6.66053 3.06611L6.66664 3.05833V4.16667C6.66664 4.31401 6.72517 4.45532 6.82936 4.5595C6.93355 4.66369 7.07485 4.72222 7.2222 4.72222C7.36954 4.72222 7.51085 4.66369 7.61503 4.5595C7.71922 4.45532 7.77775 4.31401 7.77775 4.16667V2.13667C8.23442 1.895 8.7872 1.72611 9.44442 1.67944V3.05556C9.44442 3.2029 9.50295 3.34421 9.60714 3.44839C9.71132 3.55258 9.85263 3.61111 9.99997 3.61111C10.1473 3.61111 10.2886 3.55258 10.3928 3.44839C10.497 3.34421 10.5555 3.2029 10.5555 3.05556V1.71167C11.2055 1.79333 11.76 1.97944 12.2222 2.22833V4.16667C12.2222 4.31401 12.2807 4.45532 12.3849 4.5595C12.4891 4.66369 12.6304 4.72222 12.7778 4.72222C12.9251 4.72222 13.0664 4.66369 13.1706 4.5595C13.2748 4.45532 13.3333 4.31401 13.3333 4.16667V3.12167C13.9533 3.85889 14.0844 4.63889 13.9222 5.08889C13.8722 5.22739 13.8792 5.3801 13.9417 5.51344C14.0042 5.64678 14.1171 5.74986 14.2555 5.8ZM8.59275 8.28611C7.94986 8.24518 7.31011 8.16446 6.6772 8.04445C6.74385 8.87996 7.12282 9.6597 7.73861 10.2283C8.3544 10.7969 9.1618 11.1127 9.99997 11.1127C10.8381 11.1127 11.6456 10.7969 12.2613 10.2283C12.8771 9.6597 13.2561 8.87996 13.3228 8.04445C12.7339 8.16 12.0816 8.24 11.4072 8.28611C11.2258 8.47684 11.0075 8.62864 10.7656 8.73227C10.5237 8.8359 10.2632 8.88919 9.99997 8.88889C9.73678 8.88919 9.47628 8.8359 9.23435 8.73227C8.99242 8.62864 8.77412 8.47684 8.59275 8.28611ZM10.8333 6.94444C10.8333 7.16546 10.7455 7.37742 10.5892 7.5337C10.4329 7.68998 10.221 7.77778 9.99997 7.77778C9.77896 7.77778 9.567 7.68998 9.41072 7.5337C9.25444 7.37742 9.16664 7.16546 9.16664 6.94444C9.16664 6.72343 9.25444 6.51147 9.41072 6.35519C9.567 6.19891 9.77896 6.11111 9.99997 6.11111C10.221 6.11111 10.4329 6.19891 10.5892 6.35519C10.7455 6.51147 10.8333 6.72343 10.8333 6.94444Z" fill="#F8F8F8"/>
<path d="M10 18.3336C10.2947 18.3336 10.5773 18.2165 10.7857 18.0081C10.9941 17.7997 11.1111 17.5171 11.1111 17.2224C11.1111 16.9278 10.9941 16.6451 10.7857 16.4368C10.5773 16.2284 10.2947 16.1113 10 16.1113C9.70534 16.1113 9.42273 16.2284 9.21435 16.4368C9.00598 16.6451 8.88892 16.9278 8.88892 17.2224C8.88892 17.5171 9.00598 17.7997 9.21435 18.0081C9.42273 18.2165 9.70534 18.3336 10 18.3336Z" fill="#F8F8F8"/>
<path fill-rule="evenodd" clip-rule="evenodd" d="M7.51889 12.4443L9.44444 13.8888H10.5556L12.4811 12.4443C15.8672 12.9866 20 14.4943 20 16.6666V19.9999H0V16.6666C0 14.4943 4.13278 12.9866 7.51889 12.4443ZM10.9261 14.9999L12.765 13.6204C13.3222 13.7227 13.8894 13.851 14.4444 14.0016V18.8888H15.5556V14.3416C15.9444 14.4749 16.3172 14.6199 16.6667 14.776V18.8888H3.33333V14.776C3.68278 14.6204 4.05556 14.4749 4.44444 14.3416V18.8888H5.55556V14.0016C6.11056 13.851 6.67778 13.7227 7.235 13.6204L9.07389 14.9999H10.9261ZM18.5028 15.9388C18.8161 16.2632 18.8889 16.5027 18.8889 16.6666V18.8888H17.7778V15.3643C18.0778 15.5566 18.32 15.7499 18.5028 15.9393V15.9388ZM1.49722 15.9388C1.68056 15.7499 1.92278 15.5566 2.22222 15.3643V18.8888H1.11111V16.6666C1.11111 16.5027 1.18333 16.2632 1.49722 15.9388Z" fill="#F8F8F8"/>
</svg>
