<svg width="20" height="20" viewBox="0 0 20 20" fill="none" xmlns="http://www.w3.org/2000/svg">
<path d="M6.875 4.375C6.875 5.2038 7.20424 5.99866 7.79029 6.58471C8.37634 7.17076 9.1712 7.5 10 7.5C10.8288 7.5 11.6237 7.17076 12.2097 6.58471C12.7958 5.99866 13.125 5.2038 13.125 4.375C13.125 3.5462 12.7958 2.75134 12.2097 2.16529C11.6237 1.57924 10.8288 1.25 10 1.25C9.1712 1.25 8.37634 1.57924 7.79029 2.16529C7.20424 2.75134 6.875 3.5462 6.875 4.375Z" stroke="#F8F8F8" stroke-width="1.66667" stroke-linecap="round" stroke-linejoin="round"/>
<path d="M4.61977 7.5H15.3802C15.6241 7.49996 15.8604 7.58555 16.0477 7.74184C16.235 7.89812 16.3615 8.1152 16.4052 8.35521L18.1104 17.7302C18.1377 17.8803 18.1317 18.0346 18.0928 18.1822C18.0539 18.3298 17.9831 18.467 17.8853 18.5841C17.7875 18.7013 17.6652 18.7955 17.527 18.8602C17.3887 18.9248 17.238 18.9584 17.0854 18.9583H2.91457C2.76197 18.9584 2.61123 18.9248 2.473 18.8602C2.33478 18.7955 2.21246 18.7013 2.11468 18.5841C2.0169 18.467 1.94605 18.3298 1.90715 18.1822C1.86825 18.0346 1.86225 17.8803 1.88957 17.7302L3.59477 8.35521C3.63844 8.1152 3.76496 7.89812 3.95228 7.74184C4.13959 7.58555 4.37582 7.49996 4.61977 7.5Z" stroke="#F8F8F8" stroke-width="1.66667" stroke-linecap="round" stroke-linejoin="round"/>
</svg>
