<svg width="16" height="20" viewBox="0 0 16 20" fill="none" xmlns="http://www.w3.org/2000/svg">
<g clip-path="url(#clip0_161_2252)">
<path d="M8.00028 19.933C7.73158 19.9343 7.46634 19.8725 7.22594 19.7524C6.98554 19.6324 6.77671 19.4576 6.61628 19.242L1.55527 12.5C0.71789 11.3191 0.221354 9.93073 0.119971 8.48663C0.018588 7.04253 0.316263 5.59836 0.98044 4.31206C1.64462 3.02576 2.64972 1.94687 3.88582 1.19338C5.12192 0.439882 6.54142 0.040808 7.98908 0.0397968C9.43673 0.0387857 10.8568 0.435877 12.0939 1.18764C13.3311 1.93941 14.3377 3.0169 15.0037 4.30227C15.6696 5.58764 15.9693 7.03139 15.87 8.47563C15.7706 9.91987 15.276 11.309 14.4403 12.491L9.38528 19.24C9.22484 19.456 9.01592 19.6312 8.77535 19.7515C8.53477 19.8719 8.26928 19.9341 8.00028 19.933ZM7.99227 1.06603C6.30211 1.06072 4.67036 1.68412 3.41428 2.81503C2.15467 3.93972 1.35189 5.48778 1.15833 7.1653C0.964768 8.84282 1.39391 10.533 2.36427 11.915L7.41528 18.642C7.483 18.733 7.57112 18.8068 7.67254 18.8575C7.77397 18.9082 7.88588 18.9344 7.99927 18.934C8.11291 18.9342 8.22503 18.9079 8.32674 18.8572C8.42845 18.8065 8.51697 18.7328 8.58528 18.642L13.6293 11.908C14.3175 10.9342 14.7405 9.79802 14.8568 8.61121C14.9731 7.4244 14.7786 6.22775 14.2925 5.13883C13.8064 4.04992 13.0454 3.10619 12.0842 2.40036C11.123 1.69454 9.99477 1.2509 8.81028 1.11303C8.53871 1.08201 8.26561 1.06632 7.99227 1.06603Z" fill="white"/>
<g filter="url(#filter0_d_161_2252)">
<path d="M8 10.5C7.50555 10.5 7.0222 10.3534 6.61108 10.0787C6.19995 9.80397 5.87952 9.41353 5.6903 8.95671C5.50108 8.4999 5.45157 7.99723 5.54804 7.51228C5.6445 7.02732 5.8826 6.58187 6.23223 6.23223C6.58187 5.8826 7.02732 5.6445 7.51228 5.54804C7.99723 5.45157 8.4999 5.50108 8.95671 5.6903C9.41353 5.87952 9.80397 6.19995 10.0787 6.61108C10.3534 7.0222 10.5 7.50555 10.5 8C10.5 8.66304 10.2366 9.29893 9.76777 9.76777C9.29893 10.2366 8.66304 10.5 8 10.5ZM8 6.5C7.70333 6.5 7.41332 6.58797 7.16665 6.7528C6.91997 6.91762 6.72771 7.15189 6.61418 7.42598C6.50065 7.70007 6.47095 8.00167 6.52882 8.29264C6.5867 8.58361 6.72956 8.85088 6.93934 9.06066C7.14912 9.27044 7.41639 9.4133 7.70737 9.47118C7.99834 9.52906 8.29994 9.49935 8.57403 9.38582C8.84812 9.27229 9.08238 9.08003 9.24721 8.83336C9.41203 8.58668 9.5 8.29667 9.5 8C9.5 7.60218 9.34197 7.22065 9.06066 6.93934C8.77936 6.65804 8.39783 6.5 8 6.5Z" fill="white"/>
</g>
</g>
<defs>
<filter id="filter0_d_161_2252" x="1.5" y="5.5" width="13" height="13" filterUnits="userSpaceOnUse" color-interpolation-filters="sRGB">
<feFlood flood-opacity="0" result="BackgroundImageFix"/>
<feColorMatrix in="SourceAlpha" type="matrix" values="0 0 0 0 0 0 0 0 0 0 0 0 0 0 0 0 0 0 127 0" result="hardAlpha"/>
<feOffset dy="4"/>
<feGaussianBlur stdDeviation="2"/>
<feComposite in2="hardAlpha" operator="out"/>
<feColorMatrix type="matrix" values="0 0 0 0 0 0 0 0 0 0 0 0 0 0 0 0 0 0 0.25 0"/>
<feBlend mode="normal" in2="BackgroundImageFix" result="effect1_dropShadow_161_2252"/>
<feBlend mode="normal" in="SourceGraphic" in2="effect1_dropShadow_161_2252" result="shape"/>
</filter>
<clipPath id="clip0_161_2252">
<rect width="16" height="20" fill="white"/>
</clipPath>
</defs>
</svg>
