<svg width="143" height="143" viewBox="0 0 143 143" fill="none" xmlns="http://www.w3.org/2000/svg">
<g filter="url(#filter0_d_103_5808)">
<path d="M101.003 52.0007H91.0027V39.5001C91.0027 38.837 90.7393 38.2011 90.2704 37.7323C89.8015 37.2634 89.1656 37 88.5025 37H33.5001C32.837 37 32.2011 37.2634 31.7323 37.7323C31.2634 38.2011 31 38.837 31 39.5001V84.5021C31 85.1652 31.2634 85.8011 31.7323 86.27C32.2011 86.7388 32.837 87.0022 33.5001 87.0022H36.0002V42.0002H86.0024V71.2515C87.2772 70.9264 88.587 70.7584 89.9026 70.7515H91.0027V57.0009H101.003C102.329 57.0009 103.601 57.5277 104.539 58.4654C105.477 59.4031 106.003 60.675 106.003 62.0011V64.5012H96.0029V69.5014H106.003V82.002H100.003C99.1259 79.9646 97.6711 78.2288 95.8182 77.0092C93.9654 75.7896 91.7958 75.1397 89.5776 75.1397C87.3594 75.1397 85.1898 75.7896 83.337 77.0092C81.4841 78.2288 80.0292 79.9646 79.1521 82.002H62.0764C61.2159 79.9497 59.7661 78.1986 57.9104 76.9704C56.0546 75.7421 53.8763 75.0918 51.6509 75.1017C49.5365 75.1483 47.4809 75.8063 45.7323 76.996C43.9838 78.1858 42.6171 79.8564 41.7976 81.806C40.978 83.7557 40.7406 85.901 41.114 87.9827C41.4873 90.0644 42.4555 91.9934 43.9016 93.5368C45.3476 95.0801 47.2096 96.1716 49.2627 96.6795C51.3157 97.1874 53.4719 97.09 55.4707 96.3989C57.4695 95.7078 59.2255 94.4527 60.5263 92.7852C61.8272 91.1177 62.6174 89.1091 62.8014 87.0022H78.5021C78.8198 89.7367 80.1312 92.2591 82.187 94.0899C84.2429 95.9207 86.8997 96.9322 89.6526 96.9322C92.4055 96.9322 95.0623 95.9207 97.1182 94.0899C99.174 92.2591 100.485 89.7367 100.803 87.0022H108.503C109.166 87.0022 109.802 86.7388 110.271 86.27C110.74 85.8011 111.004 85.1652 111.004 84.5021V62.0011C111.004 59.3488 109.95 56.8052 108.074 54.9297C106.199 53.0543 103.655 52.0007 101.003 52.0007ZM51.6509 92.0024C50.8388 92.0552 50.0244 91.9407 49.2582 91.6662C48.4921 91.3916 47.7904 90.9628 47.1965 90.4063C46.6027 89.8498 46.1293 89.1773 45.8057 88.4305C45.4821 87.6838 45.3152 86.8785 45.3152 86.0647C45.3152 85.2508 45.4821 84.4456 45.8057 83.6988C46.1293 82.952 46.6027 82.2796 47.1965 81.723C47.7904 81.1665 48.4921 80.7377 49.2582 80.4632C50.0244 80.1886 50.8388 80.0742 51.6509 80.1269C52.4631 80.0742 53.2774 80.1886 54.0436 80.4632C54.8098 80.7377 55.5115 81.1665 56.1053 81.723C56.6991 82.2796 57.1725 82.952 57.4961 83.6988C57.8197 84.4456 57.9867 85.2508 57.9867 86.0647C57.9867 86.8785 57.8197 87.6838 57.4961 88.4305C57.1725 89.1773 56.6991 89.8498 56.1053 90.4063C55.5115 90.9628 54.8098 91.3916 54.0436 91.6662C53.2774 91.9407 52.4631 92.0552 51.6509 92.0024ZM89.5776 92.0024C88.4143 91.9437 87.2938 91.5448 86.355 90.8552C85.4162 90.1656 84.7005 89.2157 84.2966 88.1232C83.8927 87.0306 83.8183 85.8436 84.0827 84.7091C84.3471 83.5747 84.9386 82.5429 85.7839 81.7415C86.6293 80.9401 87.6912 80.4045 88.8381 80.201C89.985 79.9975 91.1664 80.1351 92.2359 80.5967C93.3053 81.0584 94.2157 81.8238 94.8542 82.798C95.4927 83.7722 95.8313 84.9124 95.8279 86.0772C95.7821 87.6908 95.0985 89.2206 93.927 90.3312C92.7554 91.4418 91.1914 92.0428 89.5776 92.0024Z" fill="white"/>
<path d="M139 67.5C139 104.779 108.779 135 71.5 135C34.2208 135 4 104.779 4 67.5C4 30.2208 34.2208 0 71.5 0C108.779 0 139 30.2208 139 67.5ZM10.75 67.5C10.75 101.051 37.9487 128.25 71.5 128.25C105.051 128.25 132.25 101.051 132.25 67.5C132.25 33.9487 105.051 6.75 71.5 6.75C37.9487 6.75 10.75 33.9487 10.75 67.5Z" fill="white"/>
</g>
<defs>
<filter id="filter0_d_103_5808" x="0" y="0" width="143" height="143" filterUnits="userSpaceOnUse" color-interpolation-filters="sRGB">
<feFlood flood-opacity="0" result="BackgroundImageFix"/>
<feColorMatrix in="SourceAlpha" type="matrix" values="0 0 0 0 0 0 0 0 0 0 0 0 0 0 0 0 0 0 127 0" result="hardAlpha"/>
<feOffset dy="4"/>
<feGaussianBlur stdDeviation="2"/>
<feComposite in2="hardAlpha" operator="out"/>
<feColorMatrix type="matrix" values="0 0 0 0 0 0 0 0 0 0 0 0 0 0 0 0 0 0 0.25 0"/>
<feBlend mode="normal" in2="BackgroundImageFix" result="effect1_dropShadow_103_5808"/>
<feBlend mode="normal" in="SourceGraphic" in2="effect1_dropShadow_103_5808" result="shape"/>
</filter>
</defs>
</svg>
