<svg width="17" height="21" viewBox="0 0 17 21" fill="none" xmlns="http://www.w3.org/2000/svg">
<g clip-path="url(#clip0_15_900)">
<path d="M13.6252 9.5478C13.6252 9.67012 13.6701 9.7882 13.7513 9.87969C14.5455 10.7747 15.0409 11.8507 15.187 12.9819C15.333 14.1129 15.1251 15.2602 14.5835 16.2928C14.0415 17.326 13.1858 18.2053 12.1089 18.8237C11.0317 19.4422 9.78048 19.7723 8.50021 19.7723C7.21995 19.7723 5.96869 19.4422 4.89155 18.8237C3.81467 18.2053 2.95888 17.326 2.41694 16.2928C1.87535 15.2602 1.66739 14.1129 1.81344 12.9819C1.95954 11.8507 2.45489 10.7747 3.24918 9.87969C3.33037 9.7882 3.37521 9.67012 3.37521 9.5478V6.36585C3.37521 5.15595 3.90263 3.98496 4.85937 3.11378C5.81768 2.24118 7.12665 1.7439 8.50021 1.7439C9.87378 1.7439 11.1827 2.24118 12.1411 3.11378C13.0978 3.98496 13.6252 5.15595 13.6252 6.36585V9.5478Z" stroke="#F2F2F2" stroke-linecap="round" stroke-linejoin="round"/>
<g filter="url(#filter0_d_15_900)">
<path d="M8.49993 7.0975C9.61587 7.09815 10.7163 7.3353 11.7142 7.79018V6.36579C11.7142 5.58955 11.3756 4.8451 10.7728 4.29621C10.17 3.74733 9.35241 3.43896 8.49993 3.43896C7.64745 3.43896 6.82988 3.74733 6.22709 4.29621C5.62429 4.8451 5.28564 5.58955 5.28564 6.36579V7.79018C6.28352 7.33528 7.38398 7.09813 8.49993 7.0975ZM10.3749 12.7073C10.3761 12.4015 10.2871 12.101 10.1171 11.8373C9.94717 11.5735 9.70255 11.3562 9.40881 11.2079C9.11508 11.0597 8.78302 10.986 8.44733 10.9946C8.11163 11.0032 7.78463 11.0937 7.5005 11.2567C7.21636 11.4197 6.98551 11.6492 6.83208 11.9212C6.67865 12.1932 6.60826 12.4978 6.62827 12.803C6.64829 13.1083 6.75797 13.403 6.94586 13.6565C7.13374 13.9099 7.39294 14.1128 7.69636 14.2438V16.6097H9.3035V14.2438C9.62343 14.1062 9.89393 13.8888 10.0836 13.6168C10.2732 13.3448 10.3743 13.0294 10.3749 12.7073Z" stroke="#F2F2F2" stroke-linecap="round" stroke-linejoin="round" shape-rendering="crispEdges"/>
</g>
</g>
<defs>
<filter id="filter0_d_15_900" x="0.785645" y="2.93896" width="15.4287" height="22.1708" filterUnits="userSpaceOnUse" color-interpolation-filters="sRGB">
<feFlood flood-opacity="0" result="BackgroundImageFix"/>
<feColorMatrix in="SourceAlpha" type="matrix" values="0 0 0 0 0 0 0 0 0 0 0 0 0 0 0 0 0 0 127 0" result="hardAlpha"/>
<feOffset dy="4"/>
<feGaussianBlur stdDeviation="2"/>
<feComposite in2="hardAlpha" operator="out"/>
<feColorMatrix type="matrix" values="0 0 0 0 0 0 0 0 0 0 0 0 0 0 0 0 0 0 0.25 0"/>
<feBlend mode="normal" in2="BackgroundImageFix" result="effect1_dropShadow_15_900"/>
<feBlend mode="normal" in="SourceGraphic" in2="effect1_dropShadow_15_900" result="shape"/>
</filter>
<clipPath id="clip0_15_900">
<rect width="17" height="21" fill="white"/>
</clipPath>
</defs>
</svg>
