<svg width="30" height="30" viewBox="0 0 30 30" fill="none" xmlns="http://www.w3.org/2000/svg">
<g filter="url(#filter0_d_15_897)">
<path d="M10.1617 9.01361C11.7267 11.9022 14.0978 14.2733 16.9864 15.8382L18.5881 14.2365C18.9261 13.8967 19.3498 13.6546 19.8143 13.5361C20.2787 13.4176 20.7666 13.4269 21.2261 13.5632C22.0012 13.7953 22.7962 13.9549 23.6008 14.0399C24.403 14.1249 25 14.8226 25 16.0403V19.377C25 20.3396 24.169 21.0779 23.2103 20.9934C13.5527 20.1397 5.85972 12.4473 5.00657 2.78971C4.92207 1.83148 5.66309 1 6.62565 1H10.3676C11.1741 1 11.8745 1.59693 11.9596 2.39916C12.0447 3.20382 12.2045 3.99881 12.4368 4.77388C12.573 5.23348 12.5828 5.72136 12.4642 6.18579C12.3455 6.65023 12.1034 7.0739 11.7635 7.41187L10.1617 9.01361ZM10.1617 9.01361L9.33893 9.83643M16.163 16.6611L16.9858 15.8382" stroke="#F2F2F2" stroke-linecap="round" stroke-linejoin="round" shape-rendering="crispEdges"/>
</g>
<defs>
<filter id="filter0_d_15_897" x="0.5" y="0.5" width="29" height="29" filterUnits="userSpaceOnUse" color-interpolation-filters="sRGB">
<feFlood flood-opacity="0" result="BackgroundImageFix"/>
<feColorMatrix in="SourceAlpha" type="matrix" values="0 0 0 0 0 0 0 0 0 0 0 0 0 0 0 0 0 0 127 0" result="hardAlpha"/>
<feOffset dy="4"/>
<feGaussianBlur stdDeviation="2"/>
<feComposite in2="hardAlpha" operator="out"/>
<feColorMatrix type="matrix" values="0 0 0 0 0 0 0 0 0 0 0 0 0 0 0 0 0 0 0.25 0"/>
<feBlend mode="normal" in2="BackgroundImageFix" result="effect1_dropShadow_15_897"/>
<feBlend mode="normal" in="SourceGraphic" in2="effect1_dropShadow_15_897" result="shape"/>
</filter>
</defs>
</svg>
