<svg width="22" height="22" viewBox="0 0 22 22" fill="none" xmlns="http://www.w3.org/2000/svg">
<path fill-rule="evenodd" clip-rule="evenodd" d="M11 22C5.8146 22 3.2219 22 1.6104 20.3885C0 18.7792 0 16.1854 0 11C0 5.8146 0 3.2219 1.6104 1.6104C3.223 0 5.8146 0 11 0C16.1854 0 18.7781 0 20.3885 1.6104C22 3.223 22 5.8146 22 11C22 16.1854 22 18.7781 20.3885 20.3885C18.7792 22 16.1854 22 11 22ZM11 6.875C11.2188 6.875 11.4286 6.96192 11.5834 7.11664C11.7381 7.27136 11.825 7.4812 11.825 7.7V10.175H14.3C14.5188 10.175 14.7286 10.2619 14.8834 10.4166C15.0381 10.5714 15.125 10.7812 15.125 11C15.125 11.2188 15.0381 11.4286 14.8834 11.5834C14.7286 11.7381 14.5188 11.825 14.3 11.825H11.825V14.3C11.825 14.5188 11.7381 14.7286 11.5834 14.8834C11.4286 15.0381 11.2188 15.125 11 15.125C10.7812 15.125 10.5714 15.0381 10.4166 14.8834C10.2619 14.7286 10.175 14.5188 10.175 14.3V11.825H7.7C7.4812 11.825 7.27136 11.7381 7.11664 11.5834C6.96192 11.4286 6.875 11.2188 6.875 11C6.875 10.7812 6.96192 10.5714 7.11664 10.4166C7.27136 10.2619 7.4812 10.175 7.7 10.175H10.175V7.7C10.175 7.4812 10.2619 7.27136 10.4166 7.11664C10.5714 6.96192 10.7812 6.875 11 6.875Z" fill="#F8F8F8"/>
</svg>
