<svg width="17" height="20" viewBox="0 0 17 20" fill="none" xmlns="http://www.w3.org/2000/svg">
<path fill-rule="evenodd" clip-rule="evenodd" d="M7.562 2.09261C6.02833 2.09261 4.55747 2.8094 3.47301 4.08529C2.38854 5.36118 1.77929 7.09166 1.77929 8.89605C1.77929 10.7004 2.38854 12.4309 3.47301 13.7068C4.55747 14.9827 6.02833 15.6995 7.562 15.6995C9.09566 15.6995 10.5665 14.9827 11.651 13.7068C12.7355 12.4309 13.3447 10.7004 13.3447 8.89605C13.3447 7.09166 12.7355 5.36118 11.651 4.08529C10.5665 2.8094 9.09566 2.09261 7.562 2.09261ZM1.70534e-08 8.89605C0.000102747 7.47736 0.28857 6.07928 0.841333 4.81844C1.3941 3.5576 2.19513 2.47056 3.1776 1.64802C4.16007 0.825473 5.29549 0.291278 6.48912 0.0899992C7.68276 -0.111279 8.9 0.0261946 10.0393 0.490952C11.1786 0.955709 12.2069 1.73427 13.0384 2.76169C13.8699 3.7891 14.4806 5.03557 14.8194 6.3971C15.1582 7.75864 15.2153 9.19575 14.986 10.5886C14.7567 11.9813 14.2477 13.2894 13.5013 14.4037L16.7503 18.2262C16.9123 18.4236 17.002 18.688 17 18.9624C16.9979 19.2368 16.9044 19.4994 16.7394 19.6934C16.5745 19.8875 16.3513 19.9976 16.1181 20C15.8848 20.0023 15.6601 19.8968 15.4923 19.7062L12.2433 15.8837C11.1282 16.9178 9.78825 17.5617 8.37667 17.7417C6.96509 17.9216 5.53896 17.6304 4.26149 16.9013C2.98402 16.1722 1.90683 15.0347 1.15319 13.619C0.399546 12.2033 -9.53197e-05 10.5665 1.70534e-08 8.89605ZM6.67235 5.23266C6.67235 4.95506 6.76608 4.68883 6.93292 4.49254C7.09976 4.29625 7.32605 4.18597 7.562 4.18597C8.62377 4.18597 9.64205 4.68221 10.3928 5.56552C11.1436 6.44883 11.5654 7.64686 11.5654 8.89605C11.5654 9.17364 11.4717 9.43987 11.3048 9.63616C11.138 9.83245 10.9117 9.94273 10.6758 9.94273C10.4398 9.94273 10.2135 9.83245 10.0467 9.63616C9.87984 9.43987 9.78611 9.17364 9.78611 8.89605C9.78611 8.20205 9.55179 7.53648 9.13468 7.04575C8.71758 6.55503 8.15187 6.27934 7.562 6.27934C7.32605 6.27934 7.09976 6.16906 6.93292 5.97277C6.76608 5.77648 6.67235 5.51025 6.67235 5.23266Z" fill="#C69585"/>
</svg>
