<svg width="20" height="20" viewBox="0 0 20 20" fill="none" xmlns="http://www.w3.org/2000/svg">
<g clip-path="url(#clip0_211_2045)">
<path d="M10 19.9334C8.03546 19.9334 6.11502 19.3508 4.48154 18.2594C2.84807 17.1679 1.57493 15.6166 0.823126 13.8016C0.0713205 11.9866 -0.125386 9.98937 0.257881 8.06256C0.641148 6.13574 1.58717 4.36585 2.97633 2.9767C4.36548 1.58754 6.13538 0.641514 8.06219 0.258247C9.989 -0.12502 11.9862 0.0716867 13.8012 0.823492C15.6162 1.5753 17.1676 2.84843 18.259 4.48191C19.3505 6.11538 19.933 8.03583 19.933 10.0004C19.9301 12.6339 18.8827 15.1587 17.0205 17.0209C15.1583 18.883 12.6335 19.9305 10 19.9334ZM10 1.06739C8.23324 1.06739 6.50614 1.5913 5.03711 2.57287C3.56809 3.55444 2.42312 4.94958 1.74701 6.58188C1.07089 8.21417 0.893984 10.0103 1.23867 11.7431C1.58335 13.476 2.43413 15.0677 3.68344 16.317C4.93274 17.5663 6.52445 18.4171 8.25728 18.7617C9.99011 19.1064 11.7862 18.9295 13.4185 18.2534C15.0508 17.5773 16.446 16.4323 17.4275 14.9633C18.4091 13.4943 18.933 11.7672 18.933 10.0004C18.9304 7.63202 17.9884 5.36141 16.3137 3.68673C14.639 2.01204 12.3684 1.07003 10 1.06739Z" fill="#F8F8F8"/>
<path d="M9.5 4C9.5 3.86739 9.55268 3.74021 9.64645 3.64645C9.74021 3.55268 9.86739 3.5 10 3.5C10.1326 3.5 10.2598 3.55268 10.3536 3.64645C10.4473 3.74021 10.5 3.86739 10.5 4V8.8C11.63 7.67 12.76 6.53 13.89 5.4C13.9842 5.30585 14.1118 5.25295 14.245 5.25295C14.3782 5.25295 14.5058 5.30585 14.6 5.4C14.6942 5.49415 14.747 5.62185 14.747 5.755C14.747 5.88815 14.6942 6.01585 14.6 6.11L10.34 10.36C10.2661 10.4365 10.1681 10.4853 10.0624 10.498C9.9568 10.5108 9.85 10.4868 9.76 10.43C9.75 10.41 9.74 10.41 9.73 10.41C9.66926 10.377 9.61748 10.3297 9.57915 10.2722C9.54081 10.2147 9.51708 10.1487 9.51 10.08L9.5 4Z" fill="#F8F8F8"/>
</g>
<defs>
<clipPath id="clip0_211_2045">
<rect width="20" height="20" fill="white"/>
</clipPath>
</defs>
</svg>
