<svg width="17" height="20" viewBox="0 0 17 20" fill="none" xmlns="http://www.w3.org/2000/svg">
<path id="Vector" d="M11.5385 10.3846C11.5385 10.4866 11.4979 10.5845 11.4258 10.6566C11.3537 10.7287 11.2559 10.7692 11.1538 10.7692H5C4.89799 10.7692 4.80017 10.7287 4.72804 10.6566C4.65591 10.5845 4.61538 10.4866 4.61538 10.3846C4.61538 10.2826 4.65591 10.1848 4.72804 10.1127C4.80017 10.0405 4.89799 10 5 10H11.1538C11.2559 10 11.3537 10.0405 11.4258 10.1127C11.4979 10.1848 11.5385 10.2826 11.5385 10.3846ZM11.1538 13.0769H5C4.89799 13.0769 4.80017 13.1174 4.72804 13.1896C4.65591 13.2617 4.61538 13.3595 4.61538 13.4615C4.61538 13.5635 4.65591 13.6614 4.72804 13.7335C4.80017 13.8056 4.89799 13.8462 5 13.8462H11.1538C11.2559 13.8462 11.3537 13.8056 11.4258 13.7335C11.4979 13.6614 11.5385 13.5635 11.5385 13.4615C11.5385 13.3595 11.4979 13.2617 11.4258 13.1896C11.3537 13.1174 11.2559 13.0769 11.1538 13.0769ZM16.1538 2.69231V17.3077C16.1538 18.0217 15.8702 18.7065 15.3653 19.2114C14.8604 19.7163 14.1756 20 13.4615 20H2.69231C1.97826 20 1.29346 19.7163 0.788559 19.2114C0.283653 18.7065 0 18.0217 0 17.3077V2.69231C0 2.38629 0.121565 2.0928 0.337954 1.87642C0.554342 1.66003 0.847827 1.53846 1.15385 1.53846H3.07692V0.384615C3.07692 0.282609 3.11744 0.184781 3.18957 0.112651C3.2617 0.0405219 3.35953 0 3.46154 0C3.56354 0 3.66137 0.0405219 3.7335 0.112651C3.80563 0.184781 3.84615 0.282609 3.84615 0.384615V1.53846H7.69231V0.384615C7.69231 0.282609 7.73283 0.184781 7.80496 0.112651C7.87709 0.0405219 7.97492 0 8.07692 0C8.17893 0 8.27676 0.0405219 8.34889 0.112651C8.42102 0.184781 8.46154 0.282609 8.46154 0.384615V1.53846H12.3077V0.384615C12.3077 0.282609 12.3482 0.184781 12.4203 0.112651C12.4925 0.0405219 12.5903 0 12.6923 0C12.7943 0 12.8921 0.0405219 12.9643 0.112651C13.0364 0.184781 13.0769 0.282609 13.0769 0.384615V1.53846H15C15.306 1.53846 15.5995 1.66003 15.8159 1.87642C16.0323 2.0928 16.1538 2.38629 16.1538 2.69231ZM15.3846 2.69231C15.3846 2.5903 15.3441 2.49247 15.272 2.42034C15.1998 2.34821 15.102 2.30769 15 2.30769H13.0769V3.46154C13.0769 3.56354 13.0364 3.66137 12.9643 3.7335C12.8921 3.80563 12.7943 3.84615 12.6923 3.84615C12.5903 3.84615 12.4925 3.80563 12.4203 3.7335C12.3482 3.66137 12.3077 3.56354 12.3077 3.46154V2.30769H8.46154V3.46154C8.46154 3.56354 8.42102 3.66137 8.34889 3.7335C8.27676 3.80563 8.17893 3.84615 8.07692 3.84615C7.97492 3.84615 7.87709 3.80563 7.80496 3.7335C7.73283 3.66137 7.69231 3.56354 7.69231 3.46154V2.30769H3.84615V3.46154C3.84615 3.56354 3.80563 3.66137 3.7335 3.7335C3.66137 3.80563 3.56354 3.84615 3.46154 3.84615C3.35953 3.84615 3.2617 3.80563 3.18957 3.7335C3.11744 3.66137 3.07692 3.56354 3.07692 3.46154V2.30769H1.15385C1.05184 2.30769 0.954011 2.34821 0.881882 2.42034C0.809753 2.49247 0.769231 2.5903 0.769231 2.69231V17.3077C0.769231 17.8177 0.97184 18.3069 1.33249 18.6675C1.69313 19.0282 2.18228 19.2308 2.69231 19.2308H13.4615C13.9716 19.2308 14.4607 19.0282 14.8214 18.6675C15.182 18.3069 15.3846 17.8177 15.3846 17.3077V2.69231Z" fill="#F8F8F8"/>
</svg>
