<svg width="20" height="20" viewBox="0 0 20 20" fill="none" xmlns="http://www.w3.org/2000/svg">
<path d="M19.975 7.31589L18.7681 2.94036C18.6911 2.66275 18.5585 2.4249 18.3876 2.25738C18.2166 2.08985 18.015 2.0003 17.8086 2.00024H14.4828V0.500061C14.4828 0.367436 14.4464 0.240244 14.3818 0.146464C14.3171 0.0526849 14.2294 0 14.1379 0H1.03448C0.760121 0 0.496996 0.158054 0.302993 0.439393C0.10899 0.720732 0 1.10231 0 1.50018V15.5019C0 15.8998 0.10899 16.2813 0.302993 16.5627C0.496996 16.844 0.760121 17.0021 1.03448 17.0021H2.78362C2.8669 17.8347 3.15418 18.5959 3.59286 19.1465C4.03154 19.697 4.59227 20 5.17241 20C5.75256 20 6.31329 19.697 6.75197 19.1465C7.19065 18.5959 7.47793 17.8347 7.56121 17.0021H12.4388C12.5221 17.8347 12.8093 18.5959 13.248 19.1465C13.6867 19.697 14.2474 20 14.8276 20C15.4077 20 15.9685 19.697 16.4071 19.1465C16.8458 18.5959 17.1331 17.8347 17.2164 17.0021H18.9655C19.2399 17.0021 19.503 16.844 19.697 16.5627C19.891 16.2813 20 15.8998 20 15.5019V7.50091C19.9998 7.4375 19.9913 7.37471 19.975 7.31589ZM14.4828 3.00036H17.8086C17.8776 3.00017 17.945 3.02996 18.0022 3.0859C18.0593 3.14183 18.1036 3.22134 18.1293 3.31415L19.1457 7.00085H14.4828V3.00036ZM0.689655 1.50018C0.689655 1.36756 0.725985 1.24037 0.790653 1.14659C0.855321 1.05281 0.943029 1.00012 1.03448 1.00012H13.7931V10.0012H0.689655V1.50018ZM5.17241 19.0023C4.83141 19.0023 4.49807 18.8557 4.21453 18.5809C3.931 18.3062 3.71001 17.9157 3.57952 17.4588C3.44902 17.002 3.41488 16.4992 3.4814 16.0142C3.54793 15.5292 3.71214 15.0837 3.95326 14.734C4.19439 14.3843 4.5016 14.1462 4.83605 14.0497C5.1705 13.9533 5.51717 14.0028 5.83221 14.192C6.14726 14.3813 6.41653 14.7017 6.60598 15.1129C6.79543 15.5241 6.89655 16.0075 6.89655 16.502C6.89655 16.8303 6.85196 17.1555 6.76531 17.4588C6.67866 17.7622 6.55166 18.0378 6.39156 18.27C6.23146 18.5022 6.0414 18.6863 5.83221 18.812C5.62303 18.9376 5.39883 19.0023 5.17241 19.0023ZM12.4388 16.0019H7.56121C7.47793 15.1693 7.19065 14.4081 6.75197 13.8576C6.31329 13.307 5.75256 13.004 5.17241 13.004C4.59227 13.004 4.03154 13.307 3.59286 13.8576C3.15418 14.4081 2.8669 15.1693 2.78362 16.0019H1.03448C0.943029 16.0019 0.855321 15.9493 0.790653 15.8555C0.725985 15.7617 0.689655 15.6345 0.689655 15.5019V11.0013H13.7931V13.3404C13.4338 13.5882 13.1222 13.9608 12.886 14.425C12.6497 14.8893 12.4961 15.431 12.4388 16.0019ZM14.8276 19.0023C14.4866 19.0023 14.1532 18.8557 13.8697 18.5809C13.5862 18.3062 13.3652 17.9157 13.2347 17.4588C13.1042 17.002 13.0701 16.4992 13.1366 16.0142C13.2031 15.5292 13.3673 15.0837 13.6084 14.734C13.8496 14.3843 14.1568 14.1462 14.4912 14.0497C14.8257 13.9533 15.1723 14.0028 15.4874 14.192C15.8024 14.3813 16.0717 14.7017 16.2612 15.1129C16.4506 15.5241 16.5517 16.0075 16.5517 16.502C16.5517 17.1651 16.3701 17.8011 16.0467 18.27C15.7234 18.7389 15.2849 19.0023 14.8276 19.0023ZM19.3103 15.5019C19.3103 15.6345 19.274 15.7617 19.2093 15.8555C19.1447 15.9493 19.057 16.0019 18.9655 16.0019H17.2164C17.1249 15.0832 16.7855 14.2548 16.2728 13.699C15.7602 13.1431 15.1163 12.9053 14.4828 13.0378V8.00097H19.3103V15.5019Z" fill="white"/>
</svg>
