<svg width="20" height="20" viewBox="0 0 20 20" fill="none" xmlns="http://www.w3.org/2000/svg">
<path d="M6.875 4.375C6.875 5.2038 7.20424 5.99866 7.79029 6.58471C8.37634 7.17076 9.1712 7.5 10 7.5C10.8288 7.5 11.6237 7.17076 12.2097 6.58471C12.7958 5.99866 13.125 5.2038 13.125 4.375C13.125 3.5462 12.7958 2.75134 12.2097 2.16529C11.6237 1.57924 10.8288 1.25 10 1.25C9.1712 1.25 8.37634 1.57924 7.79029 2.16529C7.20424 2.75134 6.875 3.5462 6.875 4.375Z" stroke="#F8F8F8" stroke-width="1.66667" stroke-linecap="round" stroke-linejoin="round"/>
<path d="M4.62008 7.5H15.3805C15.6244 7.49996 15.8607 7.58555 16.048 7.74184C16.2353 7.89812 16.3618 8.1152 16.4055 8.35521L18.1107 17.7302C18.138 17.8803 18.132 18.0346 18.0931 18.1822C18.0542 18.3298 17.9834 18.467 17.8856 18.5841C17.7878 18.7013 17.6655 18.7955 17.5273 18.8602C17.389 18.9248 17.2383 18.9584 17.0857 18.9583H2.91487C2.76227 18.9584 2.61153 18.9248 2.47331 18.8602C2.33509 18.7955 2.21276 18.7013 2.11498 18.5841C2.0172 18.467 1.94636 18.3298 1.90746 18.1822C1.86856 18.0346 1.86256 17.8803 1.88987 17.7302L3.59508 8.35521C3.63875 8.1152 3.76527 7.89812 3.95258 7.74184C4.1399 7.58555 4.37613 7.49996 4.62008 7.5Z" stroke="#F8F8F8" stroke-width="1.66667" stroke-linecap="round" stroke-linejoin="round"/>
</svg>
